<mxfile host="app.diagrams.net" agent="Mozilla/5.0 (Macintosh; Intel Mac OS X 10_15_7) AppleWebKit/537.36 (KHTML, like Gecko) Chrome/127.0.0.0 Safari/537.36" version="24.7.6">
  <diagram name="Page-1" id="6domZf8tl4awhtPSck83">
    <mxGraphModel dx="1235" dy="658" grid="1" gridSize="10" guides="1" tooltips="1" connect="1" arrows="1" fold="1" page="1" pageScale="1" pageWidth="827" pageHeight="1169" math="0" shadow="0">
      <root>
        <mxCell id="0" />
        <mxCell id="1" parent="0" />
        <mxCell id="27nqHqBm92Br-MZQgFQg-1" value="node-api" style="rounded=0;whiteSpace=wrap;html=1;" vertex="1" parent="1">
          <mxGeometry x="330" y="200" width="120" height="60" as="geometry" />
        </mxCell>
        <mxCell id="27nqHqBm92Br-MZQgFQg-2" value="mariadb" style="shape=cylinder3;whiteSpace=wrap;html=1;boundedLbl=1;backgroundOutline=1;size=15;" vertex="1" parent="1">
          <mxGeometry x="610" y="90" width="60" height="80" as="geometry" />
        </mxCell>
        <mxCell id="27nqHqBm92Br-MZQgFQg-3" style="edgeStyle=orthogonalEdgeStyle;rounded=0;orthogonalLoop=1;jettySize=auto;html=1;exitX=1;exitY=0.5;exitDx=0;exitDy=0;entryX=0;entryY=0.5;entryDx=0;entryDy=0;entryPerimeter=0;" edge="1" parent="1" source="27nqHqBm92Br-MZQgFQg-1" target="27nqHqBm92Br-MZQgFQg-2">
          <mxGeometry relative="1" as="geometry" />
        </mxCell>
        <mxCell id="27nqHqBm92Br-MZQgFQg-4" value="&lt;h1 style=&quot;margin-top: 0px;&quot;&gt;Description&lt;/h1&gt;&lt;p&gt;Node.js administration server to manage the creation and management of KomunIKON resources.&amp;nbsp;&lt;/p&gt;" style="text;html=1;whiteSpace=wrap;overflow=hidden;rounded=0;" vertex="1" parent="1">
          <mxGeometry x="320" y="280" width="180" height="120" as="geometry" />
        </mxCell>
        <mxCell id="27nqHqBm92Br-MZQgFQg-5" value="&lt;h1 style=&quot;margin-top: 0px;&quot;&gt;Description&lt;/h1&gt;&lt;p&gt;Dedicate SQL MariaDB database&lt;/p&gt;" style="text;html=1;whiteSpace=wrap;overflow=hidden;rounded=0;" vertex="1" parent="1">
          <mxGeometry x="570" y="180" width="180" height="120" as="geometry" />
        </mxCell>
      </root>
    </mxGraphModel>
  </diagram>
</mxfile>
